<svg width="710" height="707" viewBox="0 0 710 707" fill="none" xmlns="http://www.w3.org/2000/svg">
<g filter="url(#filter0_dd_0_221)">
<circle cx="355" cy="355" r="205" fill="url(#paint0_linear_0_221)"/>
</g>
<circle cx="355" cy="355" r="183" fill="#161932"/>
<path fill-rule="evenodd" clip-rule="evenodd" d="M185.5 355C185.5 261.388 261.388 185.5 355 185.5C448.612 185.5 524.5 261.388 524.5 355C524.5 448.612 448.612 524.5 355 524.5C261.388 524.5 185.5 448.612 185.5 355ZM513.5 355C513.5 267.463 442.537 196.5 355 196.5C267.463 196.5 196.5 267.463 196.5 355C196.5 442.537 267.463 513.5 355 513.5C442.537 513.5 513.5 442.537 513.5 355Z" fill="#F87070"/>
<path d="M276.258 431.281H280.242C281.669 431.281 282.784 431.607 283.586 432.258C284.388 432.904 284.789 433.779 284.789 434.883C284.789 435.669 284.578 436.349 284.156 436.922C283.74 437.49 283.148 437.909 282.383 438.18L285.164 443H282.484L279.891 438.508H278.648V443H276.258V431.281ZM279.961 436.523C280.747 436.523 281.344 436.378 281.75 436.086C282.161 435.794 282.367 435.396 282.367 434.891C282.367 434.385 282.161 433.99 281.75 433.703C281.344 433.417 280.747 433.273 279.961 433.273H278.648V436.523H279.961ZM301.492 431.281H308.477V433.391H303.648V435.922H308.164V438.031H303.648V440.891H308.711V443H301.492V431.281ZM329.242 441.125C329.721 441.125 330.122 440.992 330.445 440.727C330.773 440.461 330.938 440.133 330.938 439.742C330.938 439.43 330.831 439.164 330.617 438.945C330.409 438.727 330.133 438.531 329.789 438.359C329.445 438.182 329.073 438.01 328.672 437.844C328.276 437.677 327.878 437.497 327.477 437.305C327.081 437.107 326.716 436.875 326.383 436.609C326.049 436.344 325.781 436.023 325.578 435.648C325.375 435.273 325.273 434.823 325.273 434.297C325.273 433.646 325.438 433.078 325.766 432.594C326.094 432.104 326.555 431.724 327.148 431.453C327.742 431.182 328.432 431.047 329.219 431.047C330.474 431.047 331.677 431.359 332.828 431.984L331.844 433.984C331.333 433.661 330.846 433.443 330.383 433.328C329.919 433.214 329.534 433.156 329.227 433.156C328.763 433.156 328.391 433.255 328.109 433.453C327.833 433.646 327.695 433.904 327.695 434.227C327.695 434.503 327.794 434.74 327.992 434.938C328.19 435.135 328.451 435.312 328.773 435.469C329.102 435.625 329.458 435.784 329.844 435.945C330.245 436.112 330.651 436.294 331.062 436.492C331.474 436.69 331.854 436.927 332.203 437.203C332.552 437.479 332.831 437.812 333.039 438.203C333.253 438.594 333.359 439.065 333.359 439.617C333.359 440.32 333.18 440.945 332.82 441.492C332.461 442.034 331.966 442.461 331.336 442.773C330.706 443.081 329.982 443.234 329.164 443.234C328.409 443.234 327.651 443.102 326.891 442.836C326.13 442.565 325.435 442.185 324.805 441.695L325.93 439.789C326.221 440.044 326.557 440.273 326.938 440.477C327.318 440.68 327.708 440.839 328.109 440.953C328.516 441.068 328.893 441.125 329.242 441.125ZM348.992 433.391V431.281H358.086V433.391H354.734V443H352.344V433.391H348.992ZM372.695 443L377.266 431.281H379.945L384.516 443H381.961L380.977 440.375H376.234L375.25 443H372.695ZM380.195 438.266C379.883 437.349 379.604 436.529 379.359 435.805C379.115 435.081 378.865 434.333 378.609 433.562C378.354 434.333 378.102 435.081 377.852 435.805C377.607 436.529 377.328 437.349 377.016 438.266H380.195ZM400.539 431.281H404.523C405.951 431.281 407.065 431.607 407.867 432.258C408.669 432.904 409.07 433.779 409.07 434.883C409.07 435.669 408.859 436.349 408.438 436.922C408.021 437.49 407.43 437.909 406.664 438.18L409.445 443H406.766L404.172 438.508H402.93V443H400.539V431.281ZM404.242 436.523C405.029 436.523 405.625 436.378 406.031 436.086C406.443 435.794 406.648 435.396 406.648 434.891C406.648 434.385 406.443 433.99 406.031 433.703C405.625 433.417 405.029 433.273 404.242 433.273H402.93V436.523H404.242ZM424.586 433.391V431.281H433.68V433.391H430.328V443H427.938V433.391H424.586Z" fill="#D7E0FF"/>
<path d="M261.266 393.465C255.797 393.465 251.061 391.984 247.057 389.021C243.053 386.027 239.944 381.697 237.73 376.033C235.549 370.337 234.459 363.436 234.459 355.33C234.459 347.257 235.549 340.389 237.73 334.725C239.944 329.061 243.053 324.747 247.057 321.785C251.061 318.79 255.797 317.293 261.266 317.293C266.767 317.293 271.52 318.79 275.523 321.785C279.527 324.747 282.62 329.061 284.801 334.725C287.014 340.389 288.121 347.257 288.121 355.33C288.121 363.436 287.031 370.337 284.85 376.033C282.669 381.697 279.56 386.027 275.523 389.021C271.52 391.984 266.767 393.465 261.266 393.465ZM261.266 380.33C264.911 380.33 267.727 378.149 269.713 373.787C271.731 369.425 272.74 363.289 272.74 355.379C272.74 347.436 271.731 341.3 269.713 336.971C267.727 332.609 264.911 330.428 261.266 330.428C257.685 330.428 254.885 332.609 252.867 336.971C250.849 341.3 249.84 347.436 249.84 355.379C249.84 363.289 250.849 369.425 252.867 373.787C254.885 378.149 257.685 380.33 261.266 380.33ZM316.812 393.465C311.344 393.465 306.607 391.984 302.604 389.021C298.6 386.027 295.491 381.697 293.277 376.033C291.096 370.337 290.006 363.436 290.006 355.33C290.006 347.257 291.096 340.389 293.277 334.725C295.491 329.061 298.6 324.747 302.604 321.785C306.607 318.79 311.344 317.293 316.812 317.293C322.314 317.293 327.066 318.79 331.07 321.785C335.074 324.747 338.167 329.061 340.348 334.725C342.561 340.389 343.668 347.257 343.668 355.33C343.668 363.436 342.577 370.337 340.396 376.033C338.215 381.697 335.107 386.027 331.07 389.021C327.066 391.984 322.314 393.465 316.812 393.465ZM316.812 380.33C320.458 380.33 323.274 378.149 325.26 373.787C327.278 369.425 328.287 363.289 328.287 355.379C328.287 347.436 327.278 341.3 325.26 336.971C323.274 332.609 320.458 330.428 316.812 330.428C313.232 330.428 310.432 332.609 308.414 336.971C306.396 341.3 305.387 347.436 305.387 355.379C305.387 363.289 306.396 369.425 308.414 373.787C310.432 378.149 313.232 380.33 316.812 380.33ZM353.951 357.479C352.096 357.479 350.533 356.844 349.264 355.574C347.994 354.272 347.359 352.693 347.359 350.838C347.359 348.982 347.994 347.404 349.264 346.102C350.533 344.799 352.096 344.148 353.951 344.148C355.807 344.148 357.369 344.799 358.639 346.102C359.941 347.404 360.592 348.982 360.592 350.838C360.592 352.693 359.941 354.272 358.639 355.574C357.369 356.844 355.807 357.479 353.951 357.479ZM353.951 392.977C352.096 392.977 350.533 392.326 349.264 391.023C347.994 389.721 347.359 388.143 347.359 386.287C347.359 384.464 347.994 382.902 349.264 381.6C350.533 380.298 352.096 379.646 353.951 379.646C355.807 379.646 357.369 380.298 358.639 381.6C359.941 382.902 360.592 384.464 360.592 386.287C360.592 388.143 359.941 389.721 358.639 391.023C357.369 392.326 355.807 392.977 353.951 392.977ZM391.09 393.465C385.621 393.465 380.885 391.984 376.881 389.021C372.877 386.027 369.768 381.697 367.555 376.033C365.374 370.337 364.283 363.436 364.283 355.33C364.283 347.257 365.374 340.389 367.555 334.725C369.768 329.061 372.877 324.747 376.881 321.785C380.885 318.79 385.621 317.293 391.09 317.293C396.591 317.293 401.344 318.79 405.348 321.785C409.352 324.747 412.444 329.061 414.625 334.725C416.839 340.389 417.945 347.257 417.945 355.33C417.945 363.436 416.855 370.337 414.674 376.033C412.493 381.697 409.384 386.027 405.348 389.021C401.344 391.984 396.591 393.465 391.09 393.465ZM391.09 380.33C394.736 380.33 397.551 378.149 399.537 373.787C401.555 369.425 402.564 363.289 402.564 355.379C402.564 347.436 401.555 341.3 399.537 336.971C397.551 332.609 394.736 330.428 391.09 330.428C387.509 330.428 384.71 332.609 382.691 336.971C380.673 341.3 379.664 347.436 379.664 355.379C379.664 363.289 380.673 369.425 382.691 373.787C384.71 378.149 387.509 380.33 391.09 380.33ZM446.637 393.465C441.168 393.465 436.432 391.984 432.428 389.021C428.424 386.027 425.315 381.697 423.102 376.033C420.921 370.337 419.83 363.436 419.83 355.33C419.83 347.257 420.921 340.389 423.102 334.725C425.315 329.061 428.424 324.747 432.428 321.785C436.432 318.79 441.168 317.293 446.637 317.293C452.138 317.293 456.891 318.79 460.895 321.785C464.898 324.747 467.991 329.061 470.172 334.725C472.385 340.389 473.492 347.257 473.492 355.33C473.492 363.436 472.402 370.337 470.221 376.033C468.04 381.697 464.931 386.027 460.895 389.021C456.891 391.984 452.138 393.465 446.637 393.465ZM446.637 380.33C450.283 380.33 453.098 378.149 455.084 373.787C457.102 369.425 458.111 363.289 458.111 355.379C458.111 347.436 457.102 341.3 455.084 336.971C453.098 332.609 450.283 330.428 446.637 330.428C443.056 330.428 440.257 332.609 438.238 336.971C436.22 341.3 435.211 347.436 435.211 355.379C435.211 363.289 436.22 369.425 438.238 373.787C440.257 378.149 443.056 380.33 446.637 380.33Z" fill="#D7E0FF"/>
<defs>
<filter id="filter0_dd_0_221" x="0" y="0" width="710" height="710" filterUnits="userSpaceOnUse" color-interpolation-filters="sRGB">
<feFlood flood-opacity="0" result="BackgroundImageFix"/>
<feColorMatrix in="SourceAlpha" type="matrix" values="0 0 0 0 0 0 0 0 0 0 0 0 0 0 0 0 0 0 127 0" result="hardAlpha"/>
<feOffset dx="50" dy="50"/>
<feGaussianBlur stdDeviation="50"/>
<feColorMatrix type="matrix" values="0 0 0 0 0.0720256 0 0 0 0 0.0825399 0 0 0 0 0.187683 0 0 0 1 0"/>
<feBlend mode="normal" in2="BackgroundImageFix" result="effect1_dropShadow_0_221"/>
<feColorMatrix in="SourceAlpha" type="matrix" values="0 0 0 0 0 0 0 0 0 0 0 0 0 0 0 0 0 0 127 0" result="hardAlpha"/>
<feOffset dx="-50" dy="-50"/>
<feGaussianBlur stdDeviation="50"/>
<feColorMatrix type="matrix" values="0 0 0 0 0.153372 0 0 0 0 0.172917 0 0 0 0 0.353708 0 0 0 1 0"/>
<feBlend mode="normal" in2="effect1_dropShadow_0_221" result="effect2_dropShadow_0_221"/>
<feBlend mode="normal" in="SourceGraphic" in2="effect2_dropShadow_0_221" result="shape"/>
</filter>
<linearGradient id="paint0_linear_0_221" x1="765" y1="355" x2="355" y2="-55" gradientUnits="userSpaceOnUse">
<stop stop-color="#2E325A"/>
<stop offset="1" stop-color="#0E112A"/>
</linearGradient>
</defs>
</svg>
